<?xml version="1.0" encoding="UTF-8" standalone="no"?>
<svg
   xmlns:dc="http://purl.org/dc/elements/1.1/"
   xmlns:cc="http://creativecommons.org/ns#"
   xmlns:rdf="http://www.w3.org/1999/02/22-rdf-syntax-ns#"
   xmlns:svg="http://www.w3.org/2000/svg"
   xmlns="http://www.w3.org/2000/svg"
   xmlns:sodipodi="http://sodipodi.sourceforge.net/DTD/sodipodi-0.dtd"
   xmlns:inkscape="http://www.inkscape.org/namespaces/inkscape"
   inkscape:version="1.0.2 (e86c870879, 2021-01-15)"
   sodipodi:docname="archive.svg"
   id="svg33"
   version="1.1"
   height="90"
   width="194"
   aria-labelledby="logo__title plan"
   class="logo">
  <metadata
     id="metadata39">
    <rdf:RDF>
      <cc:Work
         rdf:about="">
        <dc:format>image/svg+xml</dc:format>
        <dc:type
           rdf:resource="http://purl.org/dc/dcmitype/StillImage" />
        <dc:title />
      </cc:Work>
    </rdf:RDF>
  </metadata>
  <defs
     id="defs37">
    <filter
       id="filter1760"
       inkscape:label="Drop Shadow"
       style="color-interpolation-filters:sRGB">
      <feFlood
         id="feFlood1750"
         result="flood"
         flood-color="rgb(0,0,0)"
         flood-opacity="0.498039" />
      <feComposite
         id="feComposite1752"
         result="composite1"
         operator="in"
         in2="SourceGraphic"
         in="flood" />
      <feGaussianBlur
         id="feGaussianBlur1754"
         result="blur"
         stdDeviation="7"
         in="composite1" />
      <feOffset
         id="feOffset1756"
         result="offset"
         dy="0"
         dx="0" />
      <feComposite
         id="feComposite1758"
         result="composite2"
         operator="over"
         in2="offset"
         in="SourceGraphic" />
    </filter>
  </defs>
  <sodipodi:namedview
     inkscape:current-layer="g981"
     inkscape:window-maximized="0"
     inkscape:window-y="96"
     inkscape:window-x="0"
     inkscape:cy="50.275254"
     inkscape:cx="97.995229"
     inkscape:zoom="5.78"
     showgrid="false"
     id="namedview35"
     inkscape:window-height="956"
     inkscape:window-width="1914"
     inkscape:pageshadow="2"
     inkscape:pageopacity="0"
     guidetolerance="10"
     gridtolerance="10"
     objecttolerance="10"
     borderopacity="1"
     bordercolor="#666666"
     pagecolor="#ffffff"
     inkscape:document-rotation="0"
     showguides="true"
     inkscape:guide-bbox="true">
    <sodipodi:guide
       position="95.384992,36.616414"
       orientation="1,0"
       id="guide1817" />
    <sodipodi:guide
       position="172.19532,56.819916"
       orientation="1,0"
       id="guide1819" />
    <sodipodi:guide
       position="19.349604,84.563837"
       orientation="1,0"
       id="guide1823" />
    <sodipodi:guide
       position="89.367855,58.347759"
       orientation="1,0"
       id="guide1825" />
  </sodipodi:namedview>
  <g
     inkscape:label="Background"
     id="layer1"
     inkscape:groupmode="layer">
    <rect
       y="0.097085893"
       x="0.17271113"
       height="89.943695"
       width="193.78189"
       id="rect891"
       style="fill:#999999;fill-opacity:1;stroke-width:0.0329459" />
    <rect
       transform="matrix(0.99999804,-0.00197952,0,1,0,0)"
       y="3.1257105"
       x="3.2764275"
       height="84.308617"
       width="187.44753"
       id="rect864"
       style="fill:#cccccc;fill-opacity:1;stroke:none;stroke-width:1.58263" />
  </g>
  <g
     inkscape:label="Foreground"
     id="layer2"
     inkscape:groupmode="layer">
    <g
       transform="matrix(0.84267868,0,0,0.84267868,8.036676,-4.5658044)"
       id="g981">
      <text
         style="font-style:normal;font-variant:normal;font-weight:600;font-stretch:normal;font-size:12px;font-family:Montserrat;-inkscape-font-specification:'Montserrat, Semi-Bold';font-variant-ligatures:normal;font-variant-caps:normal;font-variant-numeric:normal;font-variant-east-asian:normal;text-anchor:end;fill:#6ddcfb;fill-opacity:1;stroke:#000000;stroke-width:0.288366;stroke-miterlimit:4;stroke-dasharray:none;stroke-opacity:1"
         text-anchor="end"
         class="plan uppercase bold fill-visionary"
         x="194.44389"
         y="62.597881"
         id="plan"
         focusable="false"><tspan
           id="tspan905"
           style="font-style:normal;font-variant:normal;font-weight:bold;font-stretch:normal;font-size:17.4048px;font-family:Montserrat;-inkscape-font-specification:'Montserrat, Bold';font-variant-ligatures:normal;font-variant-caps:normal;font-variant-numeric:normal;font-variant-east-asian:normal;fill:#ff0000;fill-opacity:1;stroke:#000000;stroke-width:0.288366;stroke-miterlimit:4;stroke-dasharray:none;stroke-opacity:1">supporter</tspan></text>
      <g
         id="A"
         transform="matrix(0.13860691,0,0,0.13860691,13.387778,18.407734)">
        <g
           id="g967">
          <path
             d="M 146.564,60.034 139.981,41.778 H 117.6 l -6.583,18.256 h -5.441 L 123.042,12.2 c 0.351,-0.878 1.492,-4.389 1.492,-5.178 0,-3.687 -4.038,-3.687 -6.758,-4.125 V 0.965 h 16.5 l 21.416,59.068 h -9.128 z m -18.081,-48.01 -9.391,25.629 h 19.397 z"
             id="path953" />
          <path
             d="M 221.758,60.034 206.223,32.738 h -5.441 v 27.296 h -9.655 V 12.901 c 0,-8.426 0,-8.776 -8.338,-10.005 V 0.965 h 22.557 c 10.62,0 23.785,2.282 23.785,15.71 0,8.865 -5.09,13.166 -13.429,14.482 l 16.15,28.876 H 221.758 Z M 206.662,5.09 c -6.319,0 -5.88,2.37 -5.88,7.899 v 15.623 h 5.002 c 7.636,0 13.692,-2.809 13.692,-11.41 C 219.476,8.513 215,5.09 206.662,5.09 Z"
             id="path955" />
          <path
             d="m 287.723,60.911 c -20.187,0 -25.892,-13.077 -25.892,-31.246 0,-16.939 5.617,-28.964 24.488,-28.964 5.968,0 11.936,0.79 17.554,2.633 l 0.526,14.658 h -2.545 c -0.176,-1.843 -0.878,-3.774 -1.843,-5.354 -2.722,-4.74 -7.286,-7.724 -12.815,-7.724 -13.253,0 -15.008,14.57 -15.008,24.751 0,10.883 3.335,26.331 17.027,26.331 5.793,0 10.621,-1.141 15.36,-4.477 v 6.056 c -5.53,2.459 -10.797,3.336 -16.852,3.336 z"
             id="path957" />
          <path
             d="M 376.778,60.034 V 31.333 h -23.872 v 28.701 h -9.655 V 12.551 c 0,-7.636 -1.404,-7.812 -8.776,-8.601 V 2.019 L 352.906,0 v 27.208 h 23.872 V 0.965 h 9.655 v 59.068 h -9.655 z"
             id="path959" />
          <path
             d="M 420.354,60.034 V 57.84 c 6.583,0 7.461,-1.755 7.461,-8.163 v -37.74 c 0,-6.407 -0.878,-8.163 -7.461,-8.163 V 1.58 h 24.575 v 2.194 c -6.582,0 -7.46,1.843 -7.46,8.163 v 37.74 c 0,6.32 0.878,8.163 7.46,8.163 v 2.194 z"
             id="path961" />
          <path
             d="m 509.035,60.034 h -7.636 L 484.196,12.2 C 481.563,4.827 481.125,4.301 473.577,2.896 V 0.965 h 17.026 l 17.203,48.097 h 0.175 L 524.746,0.965 h 5.705 z"
             id="path963" />
          <path
             d="m 599.734,60.034 h -35.02 V 12.901 c 0,-8.426 -0.088,-8.688 -8.339,-10.005 V 0.965 h 42.042 l 0.264,12.99 h -2.458 c 0,-6.583 -3.247,-8.865 -9.479,-8.865 h -6.847 c -4.037,0 -5.529,0.088 -5.529,4.564 V 27.12 h 10.62 c 5.003,0 6.407,-2.282 7.197,-6.758 h 2.457 v 18.432 h -2.457 c 0,-4.916 -2.106,-7.548 -7.197,-7.548 h -10.62 v 19.572 c 0,4.828 1.054,5.091 5.529,5.091 h 9.743 c 5.968,0 7.46,-2.984 7.898,-8.602 h 2.458 z"
             id="path965" />
        </g>
        <rect
           x="139.201"
           y="558.56097"
           width="423.263"
           height="21.705"
           id="rect969" />
        <rect
           x="155.897"
           y="516.81799"
           width="390.70401"
           height="30.055"
           id="rect971" />
        <rect
           x="153.39301"
           y="174.535"
           width="388.617"
           height="41.742001"
           id="rect973" />
        <polygon
           points="551.193,149.072 347.701,101.486 144.21,149.072 155.897,162.012 347.701,162.012 539.506,162.012 "
           id="polygon975" />
        <g
           id="g993">
          <path
             d="m 59.068,583.111 h -2.194 c 0,-6.582 -1.755,-7.46 -8.163,-7.46 h -37.74 c -6.407,0 -8.162,0.878 -8.162,7.46 H 0.614 v -24.575 h 2.194 c 0,6.583 1.843,7.461 8.162,7.461 h 37.741 c 6.319,0 8.163,-0.878 8.163,-7.461 h 2.194 z"
             id="path977" />
          <path
             d="M 59.068,486.655 9.127,515.619 v 0.176 h 49.941 v 5.529 H 11.234 c -8.25,0 -7.899,1.316 -9.304,8.776 H 0 v -18.519 l 47.746,-27.648 v -0.175 H 0 v -5.529 h 59.068 z"
             id="path979" />
          <path
             d="m 12.989,399.853 c -6.846,0 -8.864,2.984 -8.864,9.567 v 5.968 h 54.943 v 9.655 H 4.125 v 6.056 c 0,6.67 1.931,8.952 8.601,9.479 v 2.458 L 0,442.685 v -44.938 l 12.989,-0.351 z"
             id="path981" />
          <path
             d="m 59.068,327.093 v 35.021 H 11.936 c -8.426,0 -8.688,0.087 -10.005,8.338 H 0 V 328.41 l 12.989,-0.263 v 2.457 c -6.583,0 -8.864,3.248 -8.864,9.479 v 6.846 c 0,4.037 0.088,5.529 4.564,5.529 h 17.466 v -10.62 c 0,-5.002 -2.282,-6.406 -6.758,-7.197 v -2.457 h 18.432 v 2.457 c -4.915,0 -7.548,2.106 -7.548,7.197 v 10.62 h 19.572 c 4.828,0 5.091,-1.053 5.091,-5.529 v -9.742 c 0,-5.969 -2.984,-7.46 -8.602,-7.899 v -2.457 z"
             id="path983" />
          <path
             d="m 59.068,256.44 -27.296,15.535 v 5.442 h 27.296 v 9.654 H 11.936 c -8.426,0 -8.776,0 -10.005,8.338 H 0 v -22.556 c 0,-10.62 2.282,-23.786 15.71,-23.786 8.864,0 13.166,5.091 14.481,13.429 L 59.067,246.347 V 256.44 Z M 4.125,271.536 c 0,6.32 2.37,5.881 7.899,5.881 h 15.623 v -5.003 c 0,-7.636 -2.809,-13.692 -11.41,-13.692 -8.689,0 -12.112,4.476 -12.112,12.814 z"
             id="path985" />
          <path
             d="M 59.068,173.938 9.127,202.902 v 0.176 h 49.941 v 5.529 H 11.234 c -8.25,0 -7.899,1.316 -9.304,8.777 H 0 v -18.519 l 47.746,-27.647 v -0.175 H 0 v -5.53 h 59.068 z"
             id="path987" />
          <path
             d="m 59.068,87.662 v 35.021 H 11.936 c -8.426,0 -8.688,0.087 -10.005,8.337 H 0 V 88.979 l 12.989,-0.263 v 2.458 c -6.583,0 -8.864,3.247 -8.864,9.479 v 6.846 c 0,4.037 0.088,5.529 4.564,5.529 h 17.466 v -10.62 c 0,-5.003 -2.282,-6.407 -6.758,-7.197 v -2.458 h 18.432 v 2.458 c -4.915,0 -7.548,2.106 -7.548,7.197 v 10.62 h 19.572 c 4.828,0 5.091,-1.053 5.091,-5.529 v -9.743 c 0,-5.968 -2.984,-7.46 -8.602,-7.899 v -2.458 z"
             id="path989" />
          <path
             d="m 12.989,12.182 c -6.846,0 -8.864,2.984 -8.864,9.567 v 5.969 h 54.943 v 9.654 H 4.125 v 6.056 c 0,6.671 1.931,8.953 8.601,9.479 v 2.458 L 0,55.013 V 10.075 L 12.989,9.724 Z"
             id="path991" />
        </g>
        <path
           d="m 209.446,348.42 c -0.335,-20.5 -0.866,-41.001 -1.669,-61.487 -0.756,-19.302 -2,-38.585 -2.939,-57.881 -0.081,-1.666 -0.787,-2.026 -2.169,-2.328 -5.693,-1.241 -11.416,-1.824 -17.163,-1.833 -5.747,0.009 -11.47,0.592 -17.163,1.833 -1.382,0.301 -2.088,0.662 -2.169,2.328 -0.939,19.296 -2.183,38.579 -2.939,57.881 -0.803,20.486 -1.335,40.987 -1.669,61.487 -0.237,14.528 -0.09,29.067 0.14,43.599 0.254,16.121 0.612,32.246 1.265,48.355 0.7,17.288 1.782,34.562 2.731,51.839 0.182,3.311 0.521,6.613 0.78,9.831 6.379,1.66 12.704,2.619 19.025,2.698 6.321,-0.079 12.645,-1.038 19.025,-2.698 0.259,-3.218 0.597,-6.521 0.779,-9.831 0.949,-17.277 2.031,-34.551 2.731,-51.839 0.653,-16.109 1.011,-32.234 1.265,-48.355 0.229,-14.532 0.377,-29.071 0.139,-43.599 z"
           id="path995" />
        <path
           d="m 315.257,348.42 c -0.335,-20.5 -0.867,-41.001 -1.67,-61.487 -0.757,-19.302 -2.001,-38.585 -2.939,-57.881 -0.081,-1.666 -0.786,-2.026 -2.169,-2.328 -5.692,-1.241 -11.416,-1.824 -17.162,-1.833 -5.747,0.009 -11.47,0.592 -17.163,1.833 -1.382,0.301 -2.088,0.662 -2.169,2.328 -0.938,19.296 -2.183,38.579 -2.939,57.881 -0.803,20.486 -1.335,40.987 -1.669,61.487 -0.237,14.528 -0.09,29.067 0.139,43.599 0.255,16.121 0.612,32.246 1.265,48.355 0.701,17.288 1.782,34.562 2.731,51.839 0.182,3.311 0.521,6.613 0.779,9.831 6.38,1.66 12.705,2.619 19.025,2.698 6.321,-0.079 12.645,-1.038 19.025,-2.698 0.258,-3.218 0.597,-6.521 0.779,-9.831 0.948,-17.277 2.03,-34.551 2.73,-51.839 0.653,-16.109 1.011,-32.234 1.266,-48.355 0.231,-14.532 0.378,-29.071 0.141,-43.599 z"
           id="path997" />
        <path
           d="m 437.972,348.42 c -0.335,-20.5 -0.866,-41.001 -1.67,-61.487 -0.756,-19.302 -2,-38.585 -2.938,-57.881 -0.082,-1.666 -0.787,-2.026 -2.17,-2.328 -5.692,-1.241 -11.415,-1.824 -17.162,-1.833 -5.747,0.009 -11.47,0.592 -17.163,1.833 -1.382,0.301 -2.088,0.662 -2.169,2.328 -0.938,19.296 -2.183,38.579 -2.938,57.881 -0.804,20.486 -1.335,40.987 -1.67,61.487 -0.237,14.528 -0.09,29.067 0.14,43.599 0.255,16.121 0.612,32.246 1.265,48.355 0.701,17.288 1.782,34.562 2.731,51.839 0.183,3.311 0.521,6.613 0.779,9.831 6.38,1.66 12.704,2.619 19.025,2.698 6.321,-0.079 12.645,-1.038 19.025,-2.698 0.258,-3.218 0.597,-6.521 0.779,-9.831 0.949,-17.277 2.03,-34.551 2.731,-51.839 0.652,-16.109 1.01,-32.234 1.265,-48.355 0.23,-14.532 0.377,-29.071 0.14,-43.599 z"
           id="path999" />
        <path
           d="m 541.277,348.42 c -0.335,-20.5 -0.866,-41.001 -1.669,-61.487 -0.757,-19.302 -2.001,-38.585 -2.939,-57.881 -0.082,-1.666 -0.787,-2.026 -2.17,-2.328 -5.691,-1.241 -11.415,-1.824 -17.162,-1.833 -5.746,0.009 -11.47,0.592 -17.162,1.833 -1.383,0.301 -2.088,0.662 -2.169,2.328 -0.939,19.296 -2.184,38.579 -2.939,57.881 -0.803,20.486 -1.335,40.987 -1.67,61.487 -0.237,14.528 -0.09,29.067 0.14,43.599 0.255,16.121 0.612,32.246 1.266,48.355 0.7,17.288 1.782,34.562 2.73,51.839 0.183,3.311 0.521,6.613 0.779,9.831 6.381,1.66 12.705,2.619 19.025,2.698 6.321,-0.079 12.646,-1.038 19.025,-2.698 0.259,-3.218 0.597,-6.521 0.779,-9.831 0.949,-17.277 2.031,-34.551 2.731,-51.839 0.653,-16.109 1.01,-32.234 1.265,-48.355 0.23,-14.532 0.378,-29.071 0.14,-43.599 z"
           id="path1001" />
      </g>
    </g>
  </g>
</svg>
