<?xml version="1.0" encoding="UTF-8" standalone="no"?>
<svg
   xmlns:dc="http://purl.org/dc/elements/1.1/"
   xmlns:cc="http://creativecommons.org/ns#"
   xmlns:rdf="http://www.w3.org/1999/02/22-rdf-syntax-ns#"
   xmlns:svg="http://www.w3.org/2000/svg"
   xmlns="http://www.w3.org/2000/svg"
   xmlns:sodipodi="http://sodipodi.sourceforge.net/DTD/sodipodi-0.dtd"
   xmlns:inkscape="http://www.inkscape.org/namespaces/inkscape"
   inkscape:version="1.0 (4035a4fb49, 2020-05-01)"
   sodipodi:docname="proton.svg"
   id="svg33"
   version="1.1"
   height="90"
   width="194"
   aria-labelledby="logo__title plan"
   class="logo">
  <metadata
     id="metadata39">
    <rdf:RDF>
      <cc:Work
         rdf:about="">
        <dc:format>image/svg+xml</dc:format>
        <dc:type
           rdf:resource="http://purl.org/dc/dcmitype/StillImage" />
        <dc:title></dc:title>
      </cc:Work>
    </rdf:RDF>
  </metadata>
  <defs
     id="defs37">
    <filter
       id="filter1760"
       inkscape:label="Drop Shadow"
       style="color-interpolation-filters:sRGB">
      <feFlood
         id="feFlood1750"
         result="flood"
         flood-color="rgb(0,0,0)"
         flood-opacity="0.498039" />
      <feComposite
         id="feComposite1752"
         result="composite1"
         operator="in"
         in2="SourceGraphic"
         in="flood" />
      <feGaussianBlur
         id="feGaussianBlur1754"
         result="blur"
         stdDeviation="7"
         in="composite1" />
      <feOffset
         id="feOffset1756"
         result="offset"
         dy="0"
         dx="0" />
      <feComposite
         id="feComposite1758"
         result="composite2"
         operator="over"
         in2="offset"
         in="SourceGraphic" />
    </filter>
  </defs>
  <sodipodi:namedview
     inkscape:current-layer="g981"
     inkscape:window-maximized="0"
     inkscape:window-y="20"
     inkscape:window-x="1920"
     inkscape:cy="43.354839"
     inkscape:cx="106.6897"
     inkscape:zoom="5.39"
     showgrid="false"
     id="namedview35"
     inkscape:window-height="1041"
     inkscape:window-width="1916"
     inkscape:pageshadow="2"
     inkscape:pageopacity="0"
     guidetolerance="10"
     gridtolerance="10"
     objecttolerance="10"
     borderopacity="1"
     bordercolor="#666666"
     pagecolor="#ffffff"
     inkscape:document-rotation="0" />
  <g
     inkscape:label="Background"
     id="layer1"
     inkscape:groupmode="layer">
    <rect
       y="0.097085893"
       x="0.17271113"
       height="89.943695"
       width="193.78189"
       id="rect891"
       style="fill:#999999;fill-opacity:1;stroke-width:0.0329459" />
    <rect
       transform="matrix(0.99999804,-0.00197952,0,1,0,0)"
       y="3.1257105"
       x="3.2764275"
       height="84.308617"
       width="187.44753"
       id="rect864"
       style="fill:#272b35;fill-opacity:1;stroke:none;stroke-width:1.58263" />
  </g>
  <g
     inkscape:label="Foreground"
     id="layer2"
     inkscape:groupmode="layer">
    <g
       transform="matrix(0.93795901,0,0,0.93795901,27.544135,19.015902)"
       id="g903">
      <g
         transform="translate(0,-0.92506117)"
         id="g24"
         style="fill:#f6f7fa;fill-opacity:1">
        <path
           d="m 32.8,16.1 c 0,1.3 -0.3,2.3 -1,2.8 -0.6,0.5 -1.5,0.7 -2.8,0.7 H 26.9 V 12.8 H 29 c 2.6,0 3.8,1.1 3.8,3.3 z m 1.3,-4.5 C 32.8,10.7 31,10.2 28.7,10.2 H 23.6 V 29 h 3.2 v -6.7 h 1.9 c 2.3,0 4,-0.5 5.3,-1.4 1.4,-1.1 2.1,-2.7 2.1,-4.8 0.1,-1.9 -0.6,-3.5 -2,-4.5"
           id="path2"
           style="fill:#f6f7fa;fill-opacity:1" />
        <path
           d="m 44.8,14.1 c -0.9,0 -1.7,0.3 -2.3,0.8 -0.4,0.3 -0.8,0.8 -1.1,1.3 l -0.2,-1.8 h -2.8 v 14.5 h 3.1 v -8.4 c 0.2,-0.8 1,-3.4 2.9,-3.4 0.4,0 0.7,0.1 1.1,0.1 l 0.4,0.1 0.6,-3.1 -0.3,-0.1 c -0.4,0.1 -0.9,0 -1.4,0"
           id="path4"
           style="fill:#f6f7fa;fill-opacity:1" />
        <path
           d="M 53.2,26.3 C 51,26.3 50,24.7 50,21.4 c 0,-1.7 0.3,-3 0.9,-3.8 0.5,-0.8 1.3,-1.1 2.4,-1.1 1.1,0 1.8,0.4 2.3,1.1 0.6,0.8 0.9,2.1 0.9,3.8 -0.1,3.3 -1.1,4.9 -3.3,4.9 z m 0,-12.5 c -2,0 -3.7,0.8 -4.8,2.1 -1.1,1.3 -1.7,3.2 -1.7,5.5 0,2.3 0.6,4.1 1.7,5.5 1.1,1.4 2.8,2.1 4.8,2.1 2,0 3.7,-0.8 4.8,-2.1 1.1,-1.3 1.7,-3.2 1.7,-5.5 0,-2.3 -0.6,-4.1 -1.7,-5.5 -1.1,-1.4 -2.8,-2.1 -4.8,-2.1"
           id="path6"
           style="fill:#f6f7fa;fill-opacity:1" />
        <path
           d="m 68.9,25.7 c -0.6,0.4 -1.1,0.6 -1.6,0.6 C 66.5,26.3 66,26 66,24.6 v -7.9 h 3.1 l 0.4,-2.5 H 65.9 V 10.7 L 62.8,11 v 3.1 h -2.2 v 2.5 h 2.2 v 7.9 c 0,2.8 1.5,4.4 4.1,4.4 1.3,0 2.4,-0.4 3.3,-1 l 0.3,-0.2 -1.3,-2.3 -0.3,0.3"
           id="path8"
           style="fill:#f6f7fa;fill-opacity:1" />
        <path
           d="M 77.2,26.3 C 75,26.3 74,24.7 74,21.4 c 0,-1.7 0.3,-3 0.9,-3.8 0.5,-0.8 1.3,-1.1 2.4,-1.1 1.1,0 1.8,0.4 2.3,1.1 0.6,0.8 0.9,2.1 0.9,3.8 -0.1,3.3 -1.1,4.9 -3.3,4.9 z m 0,-12.5 c -2,0 -3.7,0.8 -4.8,2.1 -1.1,1.3 -1.7,3.2 -1.7,5.5 0,2.3 0.6,4.1 1.7,5.5 1.1,1.4 2.8,2.1 4.8,2.1 2,0 3.7,-0.8 4.8,-2.1 1.1,-1.3 1.7,-3.2 1.7,-5.5 0,-2.3 -0.6,-4.1 -1.7,-5.5 -1.1,-1.4 -2.8,-2.1 -4.8,-2.1"
           id="path10"
           style="fill:#f6f7fa;fill-opacity:1" />
        <path
           d="m 93.6,14.1 c -1.5,0 -3,0.6 -4.1,1.7 l -0.1,-1.4 h -2.7 v 14.5 h 3.1 V 18.7 c 0.5,-0.7 1.6,-2 3.1,-2 1.3,0 1.8,0.5 1.8,2 v 10.2 h 3.1 V 18.6 c 0,-1.4 -0.3,-2.5 -0.9,-3.2 -0.8,-0.9 -1.9,-1.3 -3.3,-1.3"
           id="path12"
           style="fill:#f6f7fa;fill-opacity:1" />
        <path
           d="m 113.5,10.2 -3.6,12.5 -3.8,-12.5 h -4 L 100.6,29 h 3.1 l 0.7,-9.6 c 0.1,-1.3 0.2,-2.9 0.2,-4.2 l 3.7,11.9 h 2.9 l 3.6,-11.9 c 0.1,1.2 0.1,2.7 0.3,4.2 l 0.8,9.6 h 3.1 l -1.6,-18.8 h -3.9"
           id="path14"
           style="fill:#f6f7fa;fill-opacity:1" />
        <path
           d="m 128.9,21.8 v 2.9 c -0.8,1.1 -1.7,1.7 -2.8,1.7 -1.5,0 -2.1,-0.7 -2.1,-2.2 0,-0.8 0.3,-1.3 0.8,-1.7 0.6,-0.4 1.6,-0.7 2.9,-0.7 z m 3.1,3.4 v -6.5 c 0,-2.2 -0.9,-4.9 -5.4,-4.9 -1.5,0 -3.1,0.3 -4.7,0.9 l -0.3,0.1 0.9,2.4 0.3,-0.1 c 1.3,-0.4 2.5,-0.7 3.5,-0.7 1.9,0 2.6,0.6 2.6,2.3 v 0.7 h -1.4 c -2.2,0 -3.8,0.4 -5,1.2 -1.2,0.8 -1.8,2.1 -1.8,3.6 0,2.8 1.9,4.6 4.8,4.6 0.9,0 1.7,-0.2 2.5,-0.5 0.6,-0.3 1.1,-0.6 1.6,-1.1 0.5,0.9 1.4,1.5 2.6,1.6 h 0.3 l 0.8,-2.3 -0.3,-0.1 c -0.7,0 -1,-0.3 -1,-1.2"
           id="path16"
           style="fill:#f6f7fa;fill-opacity:1" />
        <path
           d="m 137.3,8 c -0.6,0 -1.1,0.2 -1.4,0.6 -0.3,0.4 -0.6,0.9 -0.6,1.4 0,1.2 0.9,2 2,2 0.6,0 1.1,-0.2 1.5,-0.6 0.4,-0.4 0.6,-0.9 0.6,-1.4 -0.1,-1.2 -0.9,-2 -2.1,-2"
           id="path18"
           style="fill:#f6f7fa;fill-opacity:1" />
        <path
           d="m 135.7,29 h 3.1 V 14.4 h -3.1 V 29"
           id="path20"
           style="fill:#f6f7fa;fill-opacity:1" />
        <path
           d="m 147.2,26 -0.3,0.1 c -0.2,0.1 -0.5,0.1 -0.8,0.1 -0.3,0 -0.5,0 -0.5,-0.8 V 8.2 l -3.1,0.4 v 16.7 c 0,1.2 0.3,2.1 0.9,2.8 0.6,0.6 1.3,0.9 2.3,0.9 0.7,0 1.4,-0.2 2.1,-0.5 l 0.3,-0.1 -0.9,-2.4"
           id="path22"
           style="fill:#f6f7fa;fill-opacity:1" />
      </g>
      <g
         transform="translate(0,-0.92506117)"
         id="g30"
         style="fill:#f6f7fa;fill-opacity:1">
        <path
           d="M 8.3,25.4 C 7.9,25.4 7.2,25.3 6.4,24.7 5.6,24.1 0,20.1 0,20.1 V 28 c 0,0.3 0,0.9 0.9,0.9 h 14.9 c 0.9,0 0.9,-0.7 0.9,-0.9 v -7.9 c 0,0 -5.6,4 -6.4,4.6 -0.9,0.6 -1.6,0.7 -2,0.7 z"
           id="path26"
           style="fill:#f6f7fa;fill-opacity:1" />
        <path
           d="M 8.3,5.6 C 8.3,5.6 0,5.4 0,13 v 5.1 c 0,0.6 0.1,0.6 1.6,1.8 4.8,3.5 5.6,4.3 6.7,4.3 1.1,0 1.9,-0.8 6.7,-4.3 1.6,-1.1 1.6,-1.2 1.6,-1.8 V 13 C 16.7,5.4 8.3,5.6 8.3,5.6 Z m 4.8,10.7 H 3.6 v -3.2 c 0,-3.8 4.5,-4 4.8,-4 0.3,0 4.8,0.2 4.8,4 v 3.2 z"
           id="path28"
           style="fill:#f6f7fa;fill-opacity:1" />
      </g>
    </g>
    <g
       transform="matrix(0.84267868,0,0,0.84267868,22.15905,0.1540083)"
       id="g981">
      <text
         style="font-style:normal;font-variant:normal;font-weight:600;font-stretch:normal;font-size:12px;font-family:Montserrat;-inkscape-font-specification:'Montserrat, Semi-Bold';font-variant-ligatures:normal;font-variant-caps:normal;font-variant-numeric:normal;font-variant-east-asian:normal;text-anchor:end;fill:#6ddcfb;fill-opacity:1"
         text-anchor="end"
         class="plan uppercase bold fill-visionary"
         x="130.04504"
         y="78"
         id="plan"
         focusable="false"><tspan
           id="tspan905"
           style="font-style:normal;font-variant:normal;font-weight:bold;font-stretch:normal;font-size:17.4048px;font-family:Montserrat;-inkscape-font-specification:'Montserrat, Bold';font-variant-ligatures:normal;font-variant-caps:normal;font-variant-numeric:normal;font-variant-east-asian:normal">visionary</tspan></text>
    </g>
  </g>
</svg>
